<svg width="616" height="145" viewBox="0 0 616 145" fill="none" xmlns="http://www.w3.org/2000/svg">
<path d="M208.17 41.18C214.77 41.18 220.56 42.47 225.54 45.05C230.58 47.63 234.45 51.32 237.15 56.12C239.91 60.86 241.29 66.38 241.29 72.68C241.29 78.98 239.91 84.5 237.15 89.24C234.45 93.92 230.58 97.55 225.54 100.13C220.56 102.71 214.77 104 208.17 104H186.21V41.18H208.17ZM207.72 93.29C214.32 93.29 219.42 91.49 223.02 87.89C226.62 84.29 228.42 79.22 228.42 72.68C228.42 66.14 226.62 61.04 223.02 57.38C219.42 53.66 214.32 51.8 207.72 51.8H198.81V93.29H207.72ZM247.482 78.89C247.482 73.85 248.472 69.38 250.452 65.48C252.492 61.58 255.222 58.58 258.642 56.48C262.122 54.38 265.992 53.33 270.252 53.33C273.972 53.33 277.212 54.08 279.972 55.58C282.792 57.08 285.042 58.97 286.722 61.25V54.14H299.412V104H286.722V96.71C285.102 99.05 282.852 101 279.972 102.56C277.152 104.06 273.882 104.81 270.162 104.81C265.962 104.81 262.122 103.73 258.642 101.57C255.222 99.41 252.492 96.38 250.452 92.48C248.472 88.52 247.482 83.99 247.482 78.89ZM286.722 79.07C286.722 76.01 286.122 73.4 284.922 71.24C283.722 69.02 282.102 67.34 280.062 66.2C278.022 65 275.832 64.4 273.492 64.4C271.152 64.4 268.992 64.97 267.012 66.11C265.032 67.25 263.412 68.93 262.152 71.15C260.952 73.31 260.352 75.89 260.352 78.89C260.352 81.89 260.952 84.53 262.152 86.81C263.412 89.03 265.032 90.74 267.012 91.94C269.052 93.14 271.212 93.74 273.492 93.74C275.832 93.74 278.022 93.17 280.062 92.03C282.102 90.83 283.722 89.15 284.922 86.99C286.122 84.77 286.722 82.13 286.722 79.07ZM326.388 64.49V88.61C326.388 90.29 326.778 91.52 327.558 92.3C328.398 93.02 329.778 93.38 331.698 93.38H337.548V104H329.628C319.008 104 313.698 98.84 313.698 88.52V64.49H307.758V54.14H313.698V41.81H326.388V54.14H337.548V64.49H326.388ZM343.37 78.89C343.37 73.85 344.36 69.38 346.34 65.48C348.38 61.58 351.11 58.58 354.53 56.48C358.01 54.38 361.88 53.33 366.14 53.33C369.86 53.33 373.1 54.08 375.86 55.58C378.68 57.08 380.93 58.97 382.61 61.25V54.14H395.3V104H382.61V96.71C380.99 99.05 378.74 101 375.86 102.56C373.04 104.06 369.77 104.81 366.05 104.81C361.85 104.81 358.01 103.73 354.53 101.57C351.11 99.41 348.38 96.38 346.34 92.48C344.36 88.52 343.37 83.99 343.37 78.89ZM382.61 79.07C382.61 76.01 382.01 73.4 380.81 71.24C379.61 69.02 377.99 67.34 375.95 66.2C373.91 65 371.72 64.4 369.38 64.4C367.04 64.4 364.88 64.97 362.9 66.11C360.92 67.25 359.3 68.93 358.04 71.15C356.84 73.31 356.24 75.89 356.24 78.89C356.24 81.89 356.84 84.53 358.04 86.81C359.3 89.03 360.92 90.74 362.9 91.94C364.94 93.14 367.1 93.74 369.38 93.74C371.72 93.74 373.91 93.17 375.95 92.03C377.99 90.83 379.61 89.15 380.81 86.99C382.01 84.77 382.61 82.13 382.61 79.07Z" fill="#EFF6FF"/>
<path d="M450.356 41.18V51.35H433.616V104H421.016V51.35H404.276V41.18H450.356ZM456.31 78.89C456.31 73.85 457.3 69.38 459.28 65.48C461.32 61.58 464.05 58.58 467.47 56.48C470.95 54.38 474.82 53.33 479.08 53.33C482.8 53.33 486.04 54.08 488.8 55.58C491.62 57.08 493.87 58.97 495.55 61.25V54.14H508.24V104H495.55V96.71C493.93 99.05 491.68 101 488.8 102.56C485.98 104.06 482.71 104.81 478.99 104.81C474.79 104.81 470.95 103.73 467.47 101.57C464.05 99.41 461.32 96.38 459.28 92.48C457.3 88.52 456.31 83.99 456.31 78.89ZM495.55 79.07C495.55 76.01 494.95 73.4 493.75 71.24C492.55 69.02 490.93 67.34 488.89 66.2C486.85 65 484.66 64.4 482.32 64.4C479.98 64.4 477.82 64.97 475.84 66.11C473.86 67.25 472.24 68.93 470.98 71.15C469.78 73.31 469.18 75.89 469.18 78.89C469.18 81.89 469.78 84.53 470.98 86.81C472.24 89.03 473.86 90.74 475.84 91.94C477.88 93.14 480.04 93.74 482.32 93.74C484.66 93.74 486.85 93.17 488.89 92.03C490.93 90.83 492.55 89.15 493.75 86.99C494.95 84.77 495.55 82.13 495.55 79.07ZM539.626 104.81C535.546 104.81 531.886 104.09 528.646 102.65C525.406 101.15 522.826 99.14 520.906 96.62C519.046 94.1 518.026 91.31 517.846 88.25H530.536C530.776 90.17 531.706 91.76 533.326 93.02C535.006 94.28 537.076 94.91 539.536 94.91C541.936 94.91 543.796 94.43 545.116 93.47C546.496 92.51 547.186 91.28 547.186 89.78C547.186 88.16 546.346 86.96 544.666 86.18C543.046 85.34 540.436 84.44 536.836 83.48C533.116 82.58 530.056 81.65 527.656 80.69C525.316 79.73 523.276 78.26 521.536 76.28C519.856 74.3 519.016 71.63 519.016 68.27C519.016 65.51 519.796 62.99 521.356 60.71C522.976 58.43 525.256 56.63 528.196 55.31C531.196 53.99 534.706 53.33 538.726 53.33C544.666 53.33 549.406 54.83 552.946 57.83C556.486 60.77 558.436 64.76 558.796 69.8H546.736C546.556 67.82 545.716 66.26 544.216 65.12C542.776 63.92 540.826 63.32 538.366 63.32C536.086 63.32 534.316 63.74 533.056 64.58C531.856 65.42 531.256 66.59 531.256 68.09C531.256 69.77 532.096 71.06 533.776 71.96C535.456 72.8 538.066 73.67 541.606 74.57C545.206 75.47 548.176 76.4 550.516 77.36C552.856 78.32 554.866 79.82 556.546 81.86C558.286 83.84 559.186 86.48 559.246 89.78C559.246 92.66 558.436 95.24 556.816 97.52C555.256 99.8 552.976 101.6 549.976 102.92C547.036 104.18 543.586 104.81 539.626 104.81ZM599.109 104L582.189 82.76V104H569.589V37.4H582.189V75.29L598.929 54.14H615.309L593.349 79.16L615.489 104H599.109Z" fill="#60A5FA"/>
<rect x="102.844" y="89" width="38.8195" height="8.82199" transform="rotate(50.8813 102.844 89)" fill="#EFF6FF"/>
<rect x="14.1738" y="93.4482" width="75.5298" height="8.82199" transform="rotate(-13.4934 14.1738 93.4482)" fill="#EFF6FF"/>
<rect x="93.4023" y="71.7476" width="75.5298" height="8.82199" transform="rotate(-55.4359 93.4023 71.7476)" fill="#EFF6FF"/>
<rect x="34.4014" y="35.063" width="61.8947" height="8.82199" transform="rotate(34.5108 34.4014 35.063)" fill="#EFF6FF"/>
<circle cx="137.5" cy="19.5" r="19.5" fill="#60A5FA"/>
<circle cx="90" cy="80" r="26" fill="#60A5FA"/>
<circle cx="41.5" cy="45.5" r="14.5" fill="#60A5FA"/>
<circle cx="14.5" cy="101.5" r="14.5" fill="#60A5FA"/>
<circle cx="124.435" cy="124.839" r="14.5" transform="rotate(24.7627 124.435 124.839)" fill="#60A5FA"/>
</svg>
